# This file uses centimeters as units for non-parametric coordinates.

mtllib Aspas.mtl
g default
v -0.072803 -1.596788 5.047514
v -0.040649 -1.596788 5.047514
v -0.072803 -4.545592 2.767979
v -0.040649 -4.545592 2.767979
v -0.072803 -11.902038 12.284243
v 0.707228 -11.902038 12.284243
v -0.072803 -8.953295 14.563775
v 0.707228 -8.953295 14.563775
v 0.451806 -7.456927 -13.341831
v 0.889512 -7.527189 -13.336067
v -0.599304 7.474840 13.811430
v -0.161598 7.404575 13.817190
v -0.603294 7.650476 13.359329
v -0.165588 7.580218 13.365091
v 0.447814 -7.281288 -13.793928
v 0.885521 -7.351554 -13.788168
v -0.439762 -9.490745 12.337358
v -0.001953 -9.574112 12.319032
v -0.435340 8.882576 -11.284931
v 0.002469 8.799208 -11.303252
v -0.446884 8.763743 -11.778265
v -0.009075 8.680376 -11.796586
v -0.451305 -9.609574 11.844024
v -0.013496 -9.692941 11.825700
v 0.722676 -6.640699 -8.639393
v 0.754828 -6.640699 -8.639393
v 0.722676 -3.420786 -10.516583
v 0.754828 -3.420786 -10.516583
v 0.722676 -9.478794 -20.907791
v 1.502705 -9.478794 -20.907791
v 0.722676 -12.698686 -19.030646
v 1.502705 -12.698686 -19.030646
v -0.319175 15.077463 -16.443724
v -0.287048 15.078675 -16.443246
v -0.176834 12.285367 -18.908601
v -0.144706 12.286579 -18.908126
v -0.008472 4.330564 -9.888102
v 0.770913 4.360124 -9.876578
v -0.150810 7.122606 -7.423224
v 0.628575 7.152167 -7.411704
v 0.018395 5.472142 6.513614
v 0.050522 5.473361 6.514092
v 0.106770 2.349660 8.546836
v 0.138897 2.350880 8.547311
v -0.290744 8.901546 18.626091
v 0.488640 8.931107 18.637613
v -0.379116 12.024011 16.592922
v 0.400267 12.053571 16.604443
vt 0.375000 0.000000
vt 0.625000 0.000000
vt 0.375000 0.250000
vt 0.625000 0.250000
vt 0.000000 1.000001
vt 0.000000 1.000001
vt 1.000000 0.000001
vt 1.000000 0.000001
vt 0.000000 1.000002
vt 1.000000 1.000002
vt 0.000000 0.000002
vt 1.000000 0.000002
vt 0.000000 1.000000
vt 0.000000 0.000000
vt 0.041222 1.000000
vt 1.000000 0.000000
vt 0.875000 0.000000
vt 0.875000 0.250000
vt 0.125000 0.000000
vt 0.125000 0.250000
vt 0.500000 -0.000000
vt 0.500000 -0.000000
vt 0.500000 1.000000
vt 0.500000 1.000000
vt 0.375000 0.250000
vt 0.625000 0.250000
vt 0.375000 0.500000
vt 0.625000 0.500000
vt 0.500000 1.000000
vt 0.500000 1.000000
vt 0.500000 -0.000000
vt 0.500000 -0.000000
vt 0.375000 0.750000
vt 0.625000 0.750000
vt 0.375000 1.000000
vt 0.625000 1.000000
vt 0.000000 -0.000000
vt 1.000000 -0.000000
vt 0.000000 1.000000
vt 1.000000 1.000000
vt 0.503906 -0.000000
vt 0.503906 -0.000000
vt 0.503906 1.000000
vt 0.503906 1.000000
vt 0.500000 -0.000000
vt 0.500000 -0.000000
vt 0.500000 1.000000
vt 0.500000 1.000000
vt 0.375000 0.250000
vt 0.625000 0.250000
vt 0.375000 0.500000
vt 0.625000 0.500000
vt 0.500000 1.000000
vt 0.500000 1.000000
vt 0.500000 -0.000000
vt 0.500000 -0.000000
vt 0.375000 0.750000
vt 0.625000 0.750000
vt 0.375000 1.000000
vt 0.625000 1.000000
vt 0.000000 -0.000000
vt 1.000000 -0.000000
vt 0.000000 1.000000
vt 1.000000 1.000000
vt 0.503906 -0.000000
vt 0.503906 -0.000000
vt 0.503906 1.000000
vt 0.503906 1.000000
vt 0.375000 0.000000
vt 0.625000 0.000000
vt 0.375000 0.250000
vt 0.625000 0.250000
vt 0.000000 1.000001
vt 0.000000 1.000001
vt 1.000000 0.000001
vt 1.000000 0.000001
vt 0.000000 1.000002
vt 1.000000 1.000002
vt 0.000000 0.000002
vt 1.000000 0.000002
vt 0.000000 1.000000
vt 0.000000 0.000000
vt 0.041222 1.000000
vt 1.000000 0.000000
vt 0.875000 0.000000
vt 0.875000 0.250000
vt 0.125000 0.000000
vt 0.125000 0.250000
vt 0.375000 0.000000
vt 0.625000 0.000000
vt 0.375000 0.250000
vt 0.625000 0.250000
vt 0.000000 1.000001
vt 0.000000 1.000001
vt 1.000000 0.000001
vt 1.000000 0.000001
vt 0.000000 1.000002
vt 1.000000 1.000002
vt 0.000000 0.000002
vt 1.000000 0.000002
vt 0.000000 1.000000
vt 0.000000 0.000000
vt 0.041222 1.000000
vt 1.000000 0.000000
vt 0.875000 0.000000
vt 0.875000 0.250000
vt 0.125000 0.000000
vt 0.125000 0.250000
vt 0.375000 0.000000
vt 0.625000 0.000000
vt 0.375000 0.250000
vt 0.625000 0.250000
vt 0.000000 1.000001
vt 0.000000 1.000001
vt 1.000000 0.000001
vt 1.000000 0.000001
vt 0.000000 1.000002
vt 1.000000 1.000002
vt 0.000000 0.000002
vt 1.000000 0.000002
vt 0.000000 1.000000
vt 0.000000 0.000000
vt 0.041222 1.000000
vt 1.000000 0.000000
vt 0.875000 0.000000
vt 0.875000 0.250000
vt 0.125000 0.000000
vt 0.125000 0.250000
vn 0.000000 0.611603 -0.791165
vn 0.000000 0.611603 -0.791165
vn 0.000000 0.611604 -0.791164
vn 0.000000 0.611604 -0.791164
vn 0.000000 -0.791162 -0.611606
vn 0.000000 -0.791165 -0.611603
vn 0.000000 -0.791167 -0.611601
vn 0.000000 -0.791167 -0.611600
vn 0.000000 -0.611608 0.791161
vn 0.000000 -0.611608 0.791161
vn 0.000000 -0.611610 0.791159
vn 0.000000 -0.611610 0.791159
vn 0.000000 0.791160 0.611609
vn 0.000000 0.791164 0.611603
vn 0.000000 0.791162 0.611606
vn 0.000000 0.791164 0.611603
vn 0.998073 0.037955 -0.049097
vn 0.998073 0.037954 -0.049097
vn 0.998073 0.037955 -0.049097
vn 0.998073 0.037954 -0.049097
vn -1.000000 0.000000 0.000000
vn -1.000000 0.000000 0.000000
vn -1.000000 0.000000 0.000000
vn -1.000000 0.000000 0.000000
vn -0.145766 -0.869262 0.472372
vn -0.145765 -0.869262 0.472372
vn -0.145752 -0.869266 0.472369
vn -0.145752 -0.869266 0.472369
vn 0.143454 0.922910 0.357293
vn 0.143446 0.922912 0.357291
vn 0.143445 0.922912 0.357291
vn 0.143436 0.922914 0.357289
vn 0.145747 0.869267 -0.472370
vn 0.145747 0.869266 -0.472370
vn 0.145768 0.869261 -0.472374
vn 0.145768 0.869261 -0.472374
vn -0.143459 -0.922913 -0.357283
vn -0.143453 -0.922913 -0.357284
vn -0.143452 -0.922913 -0.357285
vn -0.143446 -0.922914 -0.357286
vn 0.998661 0.050589 0.010839
vn 0.998661 0.050589 0.010839
vn 0.998661 0.050589 0.010840
vn 0.998661 0.050589 0.010840
vn -0.998661 -0.050589 -0.010837
vn -0.998661 -0.050589 -0.010837
vn -0.998661 -0.050588 -0.010838
vn -0.998661 -0.050588 -0.010838
vn 0.173338 0.777381 0.604675
vn 0.173338 0.777381 0.604675
vn 0.173326 0.777382 0.604678
vn 0.173326 0.777382 0.604678
vn 0.172362 0.956716 -0.234490
vn 0.172362 0.956718 -0.234482
vn 0.172362 0.956719 -0.234481
vn 0.172361 0.956720 -0.234473
vn -0.173349 -0.777377 -0.604678
vn -0.173349 -0.777377 -0.604678
vn -0.173337 -0.777381 -0.604677
vn -0.173337 -0.777381 -0.604677
vn -0.172368 -0.956718 0.234480
vn -0.172365 -0.956718 0.234478
vn -0.172365 -0.956719 0.234478
vn -0.172363 -0.956719 0.234476
vn 0.999574 -0.023142 -0.017814
vn 0.999573 -0.023142 -0.017814
vn 0.999573 -0.023146 -0.017814
vn 0.999573 -0.023147 -0.017814
vn -0.999573 0.023142 0.017814
vn -0.999574 0.023142 0.017814
vn -0.999573 0.023147 0.017814
vn -0.999573 0.023147 0.017814
vn 0.000000 0.503666 0.863898
vn 0.000000 0.503666 0.863898
vn 0.000000 0.503665 0.863899
vn 0.000000 0.503665 0.863899
vn 0.000000 0.863890 -0.503680
vn 0.000000 0.863899 -0.503666
vn 0.000000 0.863907 -0.503651
vn 0.000000 0.863907 -0.503651
vn 0.000000 -0.503644 -0.863911
vn 0.000000 -0.503644 -0.863911
vn 0.000000 -0.503647 -0.863910
vn 0.000000 -0.503647 -0.863910
vn 0.000000 -0.863891 0.503679
vn 0.000000 -0.863909 0.503648
vn 0.000000 -0.863900 0.503663
vn 0.000000 -0.863909 0.503648
vn 0.998073 0.031256 0.053612
vn 0.998073 0.031254 0.053612
vn 0.998073 0.031255 0.053612
vn 0.998073 0.031254 0.053612
vn -1.000000 -0.000001 -0.000000
vn -1.000000 0.000000 0.000000
vn -1.000000 -0.000000 -0.000000
vn -1.000000 0.000001 0.000000
vn -0.013751 0.661348 -0.749953
vn -0.013751 0.661348 -0.749953
vn -0.013833 0.661365 -0.749937
vn -0.013834 0.661365 -0.749937
vn 0.038191 -0.749122 -0.661331
vn 0.038189 -0.749121 -0.661331
vn 0.038186 -0.749121 -0.661331
vn 0.038186 -0.749121 -0.661331
vn 0.014003 -0.661354 0.749943
vn 0.014002 -0.661354 0.749943
vn 0.013994 -0.661353 0.749944
vn 0.013993 -0.661353 0.749944
vn -0.038195 0.749133 0.661318
vn -0.038193 0.749119 0.661333
vn -0.038194 0.749126 0.661326
vn -0.038193 0.749119 0.661333
vn 0.996378 0.078865 -0.031797
vn 0.996378 0.078867 -0.031797
vn 0.996378 0.078866 -0.031797
vn 0.996378 0.078867 -0.031797
vn -0.999173 -0.037897 -0.014771
vn -0.999173 -0.037898 -0.014771
vn -0.999173 -0.037897 -0.014771
vn -0.999173 -0.037898 -0.014771
vn 0.033106 -0.544660 -0.838003
vn 0.033105 -0.544661 -0.838003
vn 0.033031 -0.544726 -0.837963
vn 0.033031 -0.544726 -0.837963
vn 0.023751 -0.837754 0.545531
vn 0.023732 -0.837760 0.545522
vn 0.023712 -0.837766 0.545514
vn 0.023712 -0.837766 0.545514
vn -0.033050 0.544704 0.837977
vn -0.033049 0.544705 0.837976
vn -0.033047 0.544707 0.837975
vn -0.033046 0.544708 0.837974
vn -0.023626 0.837766 -0.545519
vn -0.023712 0.837768 -0.545511
vn -0.023669 0.837767 -0.545515
vn -0.023712 0.837768 -0.545511
vn 0.999298 0.004021 -0.037259
vn 0.999298 0.004021 -0.037259
vn 0.999298 0.004021 -0.037259
vn 0.999298 0.004022 -0.037259
vn -0.999173 -0.037896 -0.014772
vn -0.999172 -0.037898 -0.014771
vn -0.999173 -0.037897 -0.014772
vn -0.999173 -0.037898 -0.014771
s 1
g pasted__polySurface22 group248
usemtl pasted__pasted__lambert76SG1
f 1/1/1 2/2/2 3/3/3
f 3/3/3 2/2/2 4/4/4
s 2
f 3/5/5 4/6/6 5/7/7
f 4/6/6 6/8/8 5/7/7
s 3
f 5/9/9 6/10/10 7/11/11
f 7/11/11 6/10/10 8/12/12
s 4
f 1/13/13 7/14/14 2/15/15
f 7/14/14 8/16/16 2/15/15
s 5
f 2/2/17 8/17/18 4/4/19
f 4/4/19 8/17/18 6/18/20
s 6
f 7/19/21 1/1/22 5/20/23
f 5/20/23 1/1/22 3/3/24
s 7
usemtl pasted__pasted__pasted__pasted__lambert66SG2
f 9/21/25 10/22/26 11/23/27
f 11/23/27 10/22/26 12/24/28
s 8
f 11/25/29 12/26/30 13/27/31
f 13/27/31 12/26/30 14/28/32
s 9
f 13/29/33 14/30/34 15/31/35
f 15/31/35 14/30/34 16/32/36
s 10
f 15/33/37 16/34/38 9/35/39
f 9/35/39 16/34/38 10/36/40
s 11
f 10/37/41 16/38/42 12/39/43
f 12/39/43 16/38/42 14/40/44
s 12
f 15/41/45 9/42/46 13/43/47
f 13/43/47 9/42/46 11/44/48
s 13
usemtl pasted__pasted__pasted__lambert66SG2
f 17/45/49 18/46/50 19/47/51
f 19/47/51 18/46/50 20/48/52
s 14
f 19/49/53 20/50/54 21/51/55
f 21/51/55 20/50/54 22/52/56
s 15
f 21/53/57 22/54/58 23/55/59
f 23/55/59 22/54/58 24/56/60
s 16
f 23/57/61 24/58/62 17/59/63
f 17/59/63 24/58/62 18/60/64
s 17
f 18/61/65 24/62/66 20/63/67
f 20/63/67 24/62/66 22/64/68
s 18
f 23/65/69 17/66/70 21/67/71
f 21/67/71 17/66/70 19/68/72
s 19
usemtl pasted__lambert76SG1
f 25/69/73 26/70/74 27/71/75
f 27/71/75 26/70/74 28/72/76
s 20
f 27/73/77 28/74/78 29/75/79
f 28/74/78 30/76/80 29/75/79
s 21
f 29/77/81 30/78/82 31/79/83
f 31/79/83 30/78/82 32/80/84
s 22
f 25/81/85 31/82/86 26/83/87
f 31/82/86 32/84/88 26/83/87
s 23
f 26/70/89 32/85/90 28/72/91
f 28/72/91 32/85/90 30/86/92
s 24
f 31/87/93 25/69/94 29/88/95
f 29/88/95 25/69/94 27/71/96
s 25
usemtl pasted__pasted__pasted__pasted__lambert76SG
f 33/89/97 34/90/98 35/91/99
f 35/91/99 34/90/98 36/92/100
s 26
f 35/93/101 36/94/102 37/95/103
f 36/94/102 38/96/104 37/95/103
s 27
f 37/97/105 38/98/106 39/99/107
f 39/99/107 38/98/106 40/100/108
s 28
f 33/101/109 39/102/110 34/103/111
f 39/102/110 40/104/112 34/103/111
s 29
f 34/90/113 40/105/114 36/92/115
f 36/92/115 40/105/114 38/106/116
s 30
f 39/107/117 33/89/118 37/108/119
f 37/108/119 33/89/118 35/91/120
s 31
usemtl pasted__pasted__pasted__lambert76SG1
f 41/109/121 42/110/122 43/111/123
f 43/111/123 42/110/122 44/112/124
s 32
f 43/113/125 44/114/126 45/115/127
f 44/114/126 46/116/128 45/115/127
s 33
f 45/117/129 46/118/130 47/119/131
f 47/119/131 46/118/130 48/120/132
s 34
f 41/121/133 47/122/134 42/123/135
f 47/122/134 48/124/136 42/123/135
s 35
f 42/110/137 48/125/138 44/112/139
f 44/112/139 48/125/138 46/126/140
s 36
f 47/127/141 41/109/142 45/128/143
f 45/128/143 41/109/142 43/111/144
